<?xml version="1.0" encoding="utf-8"?>
<!-- Generator: Adobe Illustrator 22.0.0, SVG Export Plug-In . SVG Version: 6.00 Build 0)  -->
<svg version="1.1" xmlns="http://www.w3.org/2000/svg" xmlns:xlink="http://www.w3.org/1999/xlink" x="0px" y="0px"
	 viewBox="0 0 64 64" style="enable-background:new 0 0 64 64;" xml:space="preserve">
<g id="Layer_1">
</g>
<g id="Layer_2">
</g>
<g id="Layer_3">
</g>
<g id="Layer_4">
</g>
<g id="Layer_5">
</g>
<g id="Layer_6">
</g>
<g id="Layer_7">
</g>
<g id="Layer_8">
</g>
<g id="Layer_9">
	<g>
		<g>
			<g>
				<circle style="fill:#FCCD45;" cx="32" cy="32" r="28"/>
				<path style="fill:#F8B543;" d="M32,4c-0.3,0-0.7,0-1,0c13.9,0.5,25,12,25,26c0,14.4-11.6,26-26,26C16,56,4.6,44.9,4,31
					c0,0.3,0,0.7,0,1c0,15.5,12.5,28,28,28s28-12.5,28-28C60,16.5,47.5,4,32,4z"/>
			</g>
		</g>
		<path style="fill:none;stroke:#FFFFFF;stroke-width:3;stroke-linecap:round;stroke-miterlimit:10;" d="M19.5,10.3
			c-3.8,2.2-7,5.4-9.2,9.2"/>
	</g>
</g>
<g id="Layer_10">
	<g>
		<ellipse cx="21" cy="26.5" rx="3" ry="3.5"/>
		<ellipse cx="43" cy="26.5" rx="3" ry="3.5"/>
	</g>
	<circle style="fill:#BBBDBF;" cx="20.5" cy="27.5" r="1.5"/>
	<circle style="fill:#BBBDBF;" cx="42.5" cy="27.5" r="1.5"/>
	<path style="fill:#FFFFFF;" d="M51.3,31.6c2.5,0.8,3.5,3.9,1.9,5.5l0,0c-1.7,1.7-4.8,0.6-5.5-1.9L46,30L51.3,31.6z"/>
	<path style="fill:#F15A24;" d="M32,40c-2,0-3.7,0.4-5.2,0.9c-5.5,2-7.9,6.8-6.3,8.2c2,1.8,6.8-1.1,11.5-1.1c1.7,0,3.3,0.4,4.8,0.7
		c2.9,0.7,5.4,1.6,6.7,0.4C45.5,47.3,41.1,40,32,40z"/>
</g>
</svg>
